{"asset":{"version":"2.0","generator":"THREE.GLTFExporter r178"},"scenes":[{"name":"AuxScene","nodes":[0]}],"scene":0,"nodes":[{"children":[1]},{"name":"world","extras":{"name":"world"},"children":[2]},{"name":"geometry_0","extras":{"processed":true,"name":"geometry_0"},"mesh":0}],"bufferViews":[{"buffer":0,"byteOffset":0,"byteLength":37236,"target":34962,"byteStride":12},{"buffer":0,"byteOffset":37236,"byteLength":24824,"target":34962,"byteStride":8},{"buffer":0,"byteOffset":62060,"byteLength":52512,"target":34963}],"buffers":[{"byteLength":114572,"uri":"data:application/octet-stream;base64,"}],"accessors":[{"bufferView":0,"componentType":5126,"count":3103,"max":[0.15455129742622375,0.5006833076477051,0.11519695818424225],"min":[-0.15775839984416962,-0.5001904368400574,-0.09671664237976074],"type":"VEC3"},{"bufferView":1,"componentType":5126,"count":3103,"max":[0.9995370507240295,0.9995131492614746],"min":[0.00046296295477077365,0.0004868507385253906],"type":"VEC2"},{"bufferView":2,"componentType":5125,"count":13128,"max":[3102],"min":[0],"type":"SCALAR"}],"materials":[{"pbrMetallicRoughness":{"metallicFactor":1,"roughnessFactor":1,"baseColorTexture":{"index":0,"texCoord":0}}}],"textures":[{"sampler":0,"source":0}],"samplers":[{"magFilter":9729,"minFilter":9987,"wrapS":10497,"wrapT":10497}],"images":[{"mimeType":"image/png","uri":"data:image/png;base64,"}],"meshes":[{"primitives":[{"mode":4,"attributes":{"POSITION":0,"TEXCOORD_0":1},"indices":2,"material":0}]}]}