{"asset":{"version":"2.0","generator":"THREE.GLTFExporter r178"},"scenes":[{"name":"AuxScene","nodes":[0]}],"scene":0,"nodes":[{"children":[1]},{"name":"world","extras":{"name":"world"},"children":[2]},{"name":"geometry_0","extras":{"processed":true,"name":"geometry_0"},"mesh":0}],"bufferViews":[{"buffer":0,"byteOffset":0,"byteLength":167676,"target":34962,"byteStride":12},{"buffer":0,"byteOffset":167676,"byteLength":111784,"target":34962,"byteStride":8},{"buffer":0,"byteOffset":279460,"byteLength":244776,"target":34963}],"buffers":[{"byteLength":524236,"uri":"data:application/octet-stream;base64,"}],"accessors":[{"bufferView":0,"componentType":5126,"count":13973,"max":[0.2583223283290863,0.49881529808044434,0.18465769290924072],"min":[-0.2605794370174408,-0.5014053583145142,-0.16767184436321259],"type":"VEC3"},{"bufferView":1,"componentType":5126,"count":13973,"max":[0.9995759129524231,0.9995700716972351],"min":[0.00042408821173012257,0.0004299283027648926],"type":"VEC2"},{"bufferView":2,"componentType":5125,"count":61194,"max":[13972],"min":[0],"type":"SCALAR"}],"materials":[{"pbrMetallicRoughness":{"metallicFactor":1,"roughnessFactor":1,"baseColorTexture":{"index":0,"texCoord":0}}}],"textures":[{"sampler":0,"source":0}],"samplers":[{"magFilter":9729,"minFilter":9987,"wrapS":10497,"wrapT":10497}],"images":[{"mimeType":"image/png","uri":"data:image/png;base64,"}],"meshes":[{"primitives":[{"mode":4,"attributes":{"POSITION":0,"TEXCOORD_0":1},"indices":2,"material":0}]}]}